<svg width="512" height="512" viewBox="0 0 512 512" fill="none" xmlns="http://www.w3.org/2000/svg">
<path d="M398.222 145.383L398.222 44.2469H417.185L448.79 129.58L480.395 44.2469H499.358L499.358 145.383H483.556V75.8518L458.271 145.383H439.309L414.025 75.8518V145.383H398.222Z" fill="white"/>
<path d="M398.222 145.383L398.222 44.2469H417.185L448.79 129.58L480.395 44.2469H499.358L499.358 145.383H483.556V75.8518L458.271 145.383H439.309L414.025 75.8518V145.383H398.222Z" fill="white"/>
<path d="M398.222 145.383L398.222 44.2469H417.185L448.79 129.58L480.395 44.2469H499.358L499.358 145.383H483.556V75.8518L458.271 145.383H439.309L414.025 75.8518V145.383H398.222Z" stroke="black"/>
<path d="M398.222 259.16L398.222 158.025H417.185L448.79 243.358L480.395 158.025H499.358L499.358 259.16H483.556V189.63L458.271 259.16H439.309L414.025 189.63V259.16H398.222Z" fill="white"/>
<path d="M398.222 259.16L398.222 158.025H417.185L448.79 243.358L480.395 158.025H499.358L499.358 259.16H483.556V189.63L458.271 259.16H439.309L414.025 189.63V259.16H398.222Z" fill="white"/>
<path d="M398.222 259.16L398.222 158.025H417.185L448.79 243.358L480.395 158.025H499.358L499.358 259.16H483.556V189.63L458.271 259.16H439.309L414.025 189.63V259.16H398.222Z" stroke="black"/>
<path d="M397.869 366.264L397.515 366.617L397.869 366.971L410.511 379.613L410.864 379.966L411.218 379.613L448.79 342.04L486.362 379.613L486.716 379.966L487.07 379.613L499.712 366.971L500.065 366.617L499.712 366.264L462.139 328.691L499.712 291.119L500.065 290.765L499.712 290.412L487.07 277.77L486.716 277.416L486.362 277.77L448.79 315.342L411.218 277.77L410.864 277.416L410.511 277.77L397.869 290.412L397.515 290.765L397.869 291.119L435.441 328.691L397.869 366.264Z" fill="white" stroke="black"/>
<path d="M397.869 480.041L397.515 480.395L397.869 480.749L410.511 493.39L410.864 493.744L411.218 493.39L448.79 455.818L486.362 493.39L486.716 493.744L487.07 493.39L499.712 480.749L500.065 480.395L499.712 480.041L462.139 442.469L499.712 404.897L500.065 404.543L499.712 404.19L487.07 391.548L486.716 391.194L486.362 391.548L448.79 429.12L411.218 391.548L410.864 391.194L410.511 391.548L397.869 404.19L397.515 404.543L397.869 404.897L435.441 442.469L397.869 480.041Z" fill="white" stroke="black"/>
<path d="M170.667 486.216H25.784V25.7839H170.667H171.167V25.2839V6.32098V5.82098H170.667H6.32104H5.82104V6.32098V505.679V506.179H6.32104H170.667H171.167V505.679V486.716V486.216H170.667Z" fill="white" stroke="black"/>
<path d="M195.951 25.784H340.833L340.833 486.216H195.951H195.451V486.716V505.679V506.179H195.951H360.296H360.796V505.679L360.796 6.32101V5.82101H360.296H195.951H195.451V6.32101V25.284V25.784H195.951Z" fill="white" stroke="black"/>
</svg>
